<?xml version="1.0" encoding="UTF-8"?>
<svg version="1.1" xmlns="http://www.w3.org/2000/svg" width="1024" height="1024">
<path d="M0 0 C1.40897804 0.00333092 1.40897804 0.00333092 2.84642029 0.00672913 C3.90744461 0.00680466 4.96846893 0.00688019 6.06164551 0.00695801 C7.21579453 0.01211929 8.36994354 0.01728058 9.55906677 0.02259827 C10.73404221 0.02401321 11.90901764 0.02542816 13.11959839 0.02688599 C16.88981116 0.0325046 20.65996556 0.04506026 24.43016052 0.05775452 C26.97898779 0.06276712 29.52781599 0.06733044 32.0766449 0.07142639 C38.34033685 0.08248007 44.60399452 0.0992363 50.86766052 0.12025452 C53.80060754 5.80606601 56.33812598 11.53426419 58.68406677 17.48353577 C59.04814133 18.39791916 59.41221588 19.31230255 59.787323 20.25439453 C60.58291104 22.25332495 61.37696372 24.25286699 62.16966248 26.25294495 C64.39602181 31.86929537 66.63461581 37.48077249 68.87156677 43.09291077 C69.59178513 44.90104752 69.59178513 44.90104752 70.32655334 46.74571228 C75.57024383 59.90482619 80.87268444 73.0401686 86.17478943 86.17582703 C97.30005435 113.73903591 108.37174436 141.32337014 119.39842224 168.92616272 C119.68428822 169.64175008 119.97015419 170.35733744 120.26468277 171.09460926 C120.55059658 171.81031936 120.83651039 172.52602945 121.13108826 173.26342773 C121.41703857 173.97922438 121.70298889 174.69502102 121.99760437 175.43250847 C122.57451523 176.87667726 123.15139923 178.32085677 123.72825623 179.76504707 C127.94439425 190.31965869 132.17311792 200.86916106 136.40947533 211.4156723 C138.23063484 215.95049305 140.04998404 220.48604046 141.86932468 225.02159119 C143.59285325 229.31764894 145.31930251 233.61251751 147.04793072 237.90652561 C148.10934947 240.54525824 149.16788052 243.1851421 150.22561455 245.82535362 C150.94526702 247.61913629 151.66843531 249.4115072 152.39172363 251.2038269 C154.49518853 256.46173987 156.4683294 261.62977549 157.86766052 267.12025452 C150.89339969 267.26381101 143.91911364 267.40609057 136.94480896 267.54750061 C134.57436031 267.59571203 132.20391749 267.64421109 129.83348083 267.69300842 C126.41780583 267.7632721 123.0021109 267.83248655 119.58641052 267.90150452 C118.0078125 267.93431519 118.0078125 267.93431519 116.39732361 267.9677887 C110.88601297 268.07808148 105.38006893 268.14331899 99.86766052 268.12025452 C94.43622545 254.60222314 89.03727292 241.07123509 83.68147278 227.52305603 C83.09838314 226.049016 82.51442227 224.5753203 81.92958069 223.10197449 C81.10310521 221.01918334 80.27989832 218.93512876 79.45750427 216.85072327 C78.98175964 215.64826965 78.50601501 214.44581604 78.01585388 213.20692444 C76.86766052 210.12025452 76.86766052 210.12025452 75.86766052 206.12025452 C42.53766052 206.12025452 9.20766052 206.12025452 -25.13233948 206.12025452 C-26.12233948 209.42025452 -27.11233948 212.72025452 -28.13233948 216.12025452 C-28.91506198 218.39532003 -29.71911078 220.66322966 -30.55030823 222.92103577 C-31.00083557 224.14757874 -31.45136292 225.3741217 -31.9155426 226.63783264 C-32.14765442 227.26504211 -32.37976624 227.89225159 -32.61891174 228.53846741 C-33.30429037 230.39073238 -33.98497179 232.24473326 -34.6655426 234.09877014 C-38.73262984 245.14128485 -42.94244825 256.12179005 -47.13233948 267.12025452 C-65.94233948 267.12025452 -84.75233948 267.12025452 -104.13233948 267.12025452 C-100.75722906 255.86988647 -100.75722906 255.86988647 -98.70655823 250.44447327 C-98.24686142 249.22331818 -97.78716461 248.00216309 -97.3135376 246.7440033 C-96.81571196 245.43189239 -96.31781033 244.11981032 -95.81983948 242.80775452 C-95.29288874 241.41187557 -94.76622871 240.01588685 -94.23983765 238.61979675 C-92.83292197 234.89103375 -91.4217912 231.16387967 -90.00972366 227.43706512 C-88.53358557 223.53919181 -87.06114946 219.6399202 -85.58815002 215.74085999 C-82.37318926 207.23330762 -79.15206999 198.72809524 -75.92926788 190.22351074 C-74.71606514 187.02162182 -73.50359357 183.81945619 -72.29103088 180.61732483 C-64.05016779 158.85980346 -55.76539373 137.11971466 -47.3959198 115.41133118 C-42.93123306 103.83052393 -38.5148795 92.23238386 -34.13233948 80.62025452 C-14.98059497 29.89962579 -14.98059497 29.89962579 -6.75733948 9.74525452 C-6.39406555 8.85394836 -6.03079163 7.96264221 -5.6565094 7.04432678 C-2.81242359 0.15860825 -2.81242359 0.15860825 0 0 Z M22.86766052 69.12025452 C22.45371033 70.31747131 22.03976013 71.51468811 21.61326599 72.7481842 C17.55703871 84.43416922 13.34644907 96.05451536 9.01341248 107.64051819 C7.96721664 110.43829758 6.92400094 113.23717446 5.8813324 116.03627014 C2.88417082 124.0772577 -0.12219418 132.11447006 -3.17140198 140.13587952 C-3.59695374 141.25833069 -4.02250549 142.38078186 -4.46095276 143.5372467 C-5.21779954 145.52921444 -5.97889839 147.51957414 -6.74513245 149.50794983 C-7.06884827 150.35969788 -7.39256409 151.21144592 -7.72608948 152.08900452 C-8.00130432 152.80507874 -8.27651917 153.52115295 -8.56007385 154.25892639 C-9.27927668 156.27362427 -9.27927668 156.27362427 -9.13233948 159.12025452 C24.03266052 159.61525452 24.03266052 159.61525452 57.86766052 160.12025452 C57.1597356 156.58062992 56.47599678 153.7976703 55.21629333 150.50233459 C54.87749649 149.61028824 54.53869965 148.71824188 54.18963623 147.79916382 C53.8204155 146.83906906 53.45119476 145.8789743 53.07078552 144.88978577 C52.68525009 143.87784653 52.29971466 142.86590729 51.90249634 141.82330322 C50.64478357 138.52494972 49.38143288 135.22879053 48.11766052 131.93275452 C47.252876 129.67049272 46.38837534 127.40812239 45.52415466 125.14564514 C44.22087596 121.73456193 42.91706434 118.32368798 41.6114502 114.91349792 C38.98588305 108.05514647 36.37753003 101.19061092 33.78562927 94.31947327 C32.90120976 91.98127285 32.01624543 89.6432797 31.13096619 87.30540466 C30.58243047 85.85393375 30.0356233 84.40180835 29.49058533 82.94902039 C28.74487101 80.96253795 27.99265262 78.97864244 27.23875427 76.99525452 C26.82552917 75.89955139 26.41230408 74.80384827 25.98655701 73.67494202 C25.0072229 71.01713296 25.0072229 71.01713296 22.86766052 69.12025452 Z " fill="#E960CB" transform="translate(362.13233947753906,366.87974548339844)"/>
<path d="M0 0 C16.6044425 -0.09396592 33.20879709 -0.16423257 49.81344223 -0.20724869 C57.52545884 -0.22776389 65.23730905 -0.25566951 72.94921875 -0.30175781 C79.68079577 -0.34196779 86.41225213 -0.36751273 93.14394593 -0.37635398 C96.69942582 -0.38151182 100.25456094 -0.39339505 103.80992889 -0.42292023 C134.62244935 -0.66867733 161.11150389 2.50477702 184 25 C184.62648438 25.61359375 185.25296875 26.2271875 185.8984375 26.859375 C202.33037168 44.25789355 206.78503408 67.64297048 206.375 90.74609375 C206.02425977 99.0423529 204.18871108 106.36450076 201 114 C200.73767578 114.62970703 200.47535156 115.25941406 200.20507812 115.90820312 C196.63513475 124.18670491 192.0354642 131.30063474 186 138 C185.45859375 138.62261719 184.9171875 139.24523437 184.359375 139.88671875 C169.93827092 155.46291127 148.55956626 161.61612798 128 163 C122.49688328 163.13206741 116.99654104 163.11716084 111.4921875 163.09765625 C110.0925297 163.0961825 108.69287135 163.09516446 107.29321289 163.09460449 C102.15380009 163.0894018 97.01439915 163.07544069 91.875 163.0625 C80.36625 163.041875 68.8575 163.02125 57 163 C56.67 197.32 56.34 231.64 56 267 C8.30769231 268.32478632 8.30769231 268.32478632 1 268 C0 267 0 267 -0.1241985 265.16378969 C-0.12381878 264.35308678 -0.12343906 263.54238388 -0.12304783 262.70711422 C-0.12503888 261.77505655 -0.12702993 260.84299888 -0.12908131 259.88269705 C-0.12616847 258.84672669 -0.12325563 257.81075634 -0.12025452 256.74339294 C-0.12110894 255.65223004 -0.12196337 254.56106713 -0.12284368 253.43683869 C-0.1245017 249.75011252 -0.11897187 246.06343102 -0.11352539 242.37670898 C-0.11324356 239.74605307 -0.11340117 237.11539708 -0.1139679 234.48474121 C-0.11449332 228.80547554 -0.11134461 223.12622133 -0.10573006 217.44695854 C-0.09761753 209.23560688 -0.09500009 201.02426079 -0.09374207 192.81290556 C-0.09155116 179.49188507 -0.08489002 166.17087069 -0.07543945 152.84985352 C-0.06626634 139.90649445 -0.05918501 126.96313705 -0.05493164 114.01977539 C-0.05466892 113.22251029 -0.05440619 112.4252452 -0.05413551 111.60382055 C-0.05283051 107.60434417 -0.05156679 103.60486778 -0.05032361 99.60539138 C-0.03994978 66.40358981 -0.02233041 33.20179572 0 0 Z M56 47 C56 70.43 56 93.86 56 118 C65.11625 118.061875 74.2325 118.12375 83.625 118.1875 C86.47334473 118.21481201 89.32168945 118.24212402 92.25634766 118.27026367 C94.55891498 118.27904003 96.86148703 118.28668123 99.1640625 118.29296875 C100.32317139 118.30831665 101.48228027 118.32366455 102.67651367 118.33947754 C116.28160288 118.34374603 129.02038165 116.36580155 139.28515625 106.890625 C146.86958562 98.90701513 149.20381326 90.97874078 149 80 C147.97613135 71.96809834 145.58289359 65.87539143 140 60 C139.42378906 59.38382812 138.84757812 58.76765625 138.25390625 58.1328125 C129.99205067 50.12860314 119.32298077 46.86174022 107.99462891 46.88647461 C106.81779541 46.88659546 105.64096191 46.88671631 104.4284668 46.88684082 C103.20683838 46.89195679 101.98520996 46.89707275 100.7265625 46.90234375 C99.02536255 46.90385437 99.02536255 46.90385437 97.28979492 46.90539551 C93.06818627 46.91061294 88.84659208 46.92457419 84.625 46.9375 C75.17875 46.958125 65.7325 46.97875 56 47 Z " fill="#96B6F4" transform="translate(547,367)"/>
<path d="M0 0 C12.21 0 24.42 0 37 0 C37 0.33 37 0.66 37 1 C33.54227657 1.20005983 30.08383018 1.38267635 26.625 1.5625 C25.65949219 1.61857422 24.69398438 1.67464844 23.69921875 1.73242188 C17.3574194 2.05163996 11.29611775 1.82870943 5 1 C3.36989273 5.99594629 2.71348415 10.43851591 2.75708008 15.70776367 C2.75518173 16.44363205 2.75328339 17.17950043 2.75132751 17.93766785 C2.74765015 20.34787971 2.75827831 22.7577841 2.76953125 25.16796875 C2.77072466 26.85231999 2.77117587 28.53667191 2.7709198 30.22102356 C2.77247929 33.74040937 2.78072976 37.25969269 2.79418945 40.77905273 C2.81121772 45.28828006 2.81500233 49.79739539 2.81424427 54.30665112 C2.81451619 57.78018765 2.82000027 61.25369976 2.82724571 64.72722816 C2.83042488 66.39019905 2.83239803 68.05317271 2.83313942 69.71614647 C2.83530874 72.03761897 2.84406466 74.35897293 2.85473633 76.68041992 C2.85428314 77.36569763 2.85382996 78.05097534 2.85336304 78.75701904 C2.87518771 82.00570037 3.1264936 84.87459037 4 88 C3.69536599 89.34018171 3.35860834 90.67324119 3 92 C2.90818997 93.92801055 2.86933523 95.85886843 2.8671875 97.7890625 C2.86589844 98.89507812 2.86460937 100.00109375 2.86328125 101.140625 C2.86714844 102.29046875 2.87101563 103.4403125 2.875 104.625 C2.87113281 105.78257812 2.86726562 106.94015625 2.86328125 108.1328125 C2.86457031 109.23625 2.86585938 110.3396875 2.8671875 111.4765625 C2.86831543 112.48799316 2.86944336 113.49942383 2.87060547 114.54150391 C2.83608841 117.00516468 2.83608841 117.00516468 4 119 C3.76231043 120.58387683 3.52133405 122.16730984 3.26660156 123.74853516 C2.69967476 128.53626312 2.85756719 133.37314006 2.875 138.1875 C2.87113281 139.26708984 2.86726562 140.34667969 2.86328125 141.45898438 C2.86457031 142.49732422 2.86585938 143.53566406 2.8671875 144.60546875 C2.86831543 145.54543701 2.86944336 146.48540527 2.87060547 147.45385742 C2.90148703 149.91948426 2.90148703 149.91948426 3.53504944 151.89946079 C4.04546814 154.20541455 3.91142043 155.8271035 3.56860352 158.1547699 C2.95727854 162.96823724 2.87231947 167.67660351 2.90234375 172.52368164 C2.90380402 173.42898117 2.90526428 174.3342807 2.9067688 175.26701355 C2.91055012 177.21650306 2.91664018 179.16598922 2.92483521 181.11546516 C2.93769005 184.20584425 2.94413748 187.29618001 2.94897461 190.38658142 C2.96035753 196.94524048 2.97960063 203.5038636 3 210.0625 C3.02364917 217.67043754 3.04402346 225.27835437 3.05593872 232.88632011 C3.0623919 235.92180538 3.07489766 238.95722666 3.08764648 241.99269104 C3.09128093 243.86369777 3.09463242 245.73470508 3.09765625 247.60571289 C3.10282257 248.4417807 3.10798889 249.27784851 3.11331177 250.13925171 C3.11338226 250.92817307 3.11345276 251.71709442 3.11352539 252.52992249 C3.115746 253.2040471 3.11796661 253.87817171 3.12025452 254.57272434 C2.94727623 258.06420213 2.43359568 261.53123459 2 265 C18.83 265 35.66 265 53 265 C53 265.66 53 266.32 53 267 C20.42348002 268.09628314 20.42348002 268.09628314 8.5 268.125 C7.34697388 268.13176758 7.34697388 268.13176758 6.1706543 268.13867188 C1.12443545 268.12443545 1.12443545 268.12443545 0 267 C-0.09660712 265.57171382 -0.12371834 264.13866369 -0.12304783 262.70711422 C-0.12503888 261.77505655 -0.12702993 260.84299888 -0.12908131 259.88269705 C-0.12616847 258.84672669 -0.12325563 257.81075634 -0.12025452 256.74339294 C-0.12110894 255.65223004 -0.12196337 254.56106713 -0.12284368 253.43683869 C-0.1245017 249.75011252 -0.11897187 246.06343102 -0.11352539 242.37670898 C-0.11324356 239.74605307 -0.11340117 237.11539708 -0.1139679 234.48474121 C-0.11449332 228.80547554 -0.11134461 223.12622133 -0.10573006 217.44695854 C-0.09761753 209.23560688 -0.09500009 201.02426079 -0.09374207 192.81290556 C-0.09155116 179.49188507 -0.08489002 166.17087069 -0.07543945 152.84985352 C-0.06626634 139.90649445 -0.05918501 126.96313705 -0.05493164 114.01977539 C-0.05466892 113.22251029 -0.05440619 112.4252452 -0.05413551 111.60382055 C-0.05283051 107.60434417 -0.05156679 103.60486778 -0.05032361 99.60539138 C-0.03994978 66.40358962 -0.02205601 33.20179606 0 0 Z " fill="#B79FE7" transform="translate(547,367)"/>
<path d="M0 0 C0.33 0 0.66 0 1 0 C1.88104924 11.20387842 2.087204 22.38238895 2.0625 33.6171875 C2.06105988 34.31184364 2.05961975 35.00649979 2.05813599 35.72220612 C2.04585321 40.77317144 2.02377629 45.82407769 2 50.875 C1.97627644 55.97724102 1.95601196 61.07945278 1.94406128 66.18173599 C1.93761916 68.20476742 1.92513217 70.22770207 1.91235352 72.2507019 C1.90905029 73.47362946 1.90574707 74.69655701 1.90234375 75.95654297 C1.89710693 77.03032196 1.89187012 78.10410095 1.88647461 79.2104187 C1.98623172 81.66168163 2.36915743 83.64949832 3 86 C2.69536599 87.34018171 2.35860834 88.67324119 2 90 C1.90818997 91.92801055 1.86933523 93.85886843 1.8671875 95.7890625 C1.86589844 96.89507812 1.86460937 98.00109375 1.86328125 99.140625 C1.86714844 100.29046875 1.87101563 101.4403125 1.875 102.625 C1.87113281 103.78257812 1.86726562 104.94015625 1.86328125 106.1328125 C1.86457031 107.23625 1.86585938 108.3396875 1.8671875 109.4765625 C1.86831543 110.48799316 1.86944336 111.49942383 1.87060547 112.54150391 C1.83608841 115.00516468 1.83608841 115.00516468 3 117 C2.76231043 118.58387683 2.52133405 120.16730984 2.26660156 121.74853516 C1.69967476 126.53626312 1.85756719 131.37314006 1.875 136.1875 C1.87113281 137.26708984 1.86726562 138.34667969 1.86328125 139.45898438 C1.86457031 140.49732422 1.86585938 141.53566406 1.8671875 142.60546875 C1.86831543 143.54543701 1.86944336 144.48540527 1.87060547 145.45385742 C1.90148703 147.91948426 1.90148703 147.91948426 2.53504944 149.89946079 C3.04546814 152.20541455 2.91142043 153.8271035 2.56860352 156.1547699 C1.95727854 160.96823724 1.87231947 165.67660351 1.90234375 170.52368164 C1.90380402 171.42898117 1.90526428 172.3342807 1.9067688 173.26701355 C1.91055012 175.21650306 1.91664018 177.16598922 1.92483521 179.11546516 C1.93769005 182.20584425 1.94413748 185.29618001 1.94897461 188.38658142 C1.96035753 194.94524048 1.97960063 201.5038636 2 208.0625 C2.02364917 215.67043754 2.04402346 223.27835437 2.05593872 230.88632011 C2.0623919 233.92180538 2.07489766 236.95722666 2.08764648 239.99269104 C2.09128093 241.86369777 2.09463242 243.73470508 2.09765625 245.60571289 C2.10282257 246.4417807 2.10798889 247.27784851 2.11331177 248.13925171 C2.11376237 253.18203127 1.72245502 258.00778849 1 263 C0.67 263 0.34 263 0 263 C0 176.21 0 89.42 0 0 Z " fill="#B48FE1" transform="translate(548,369)"/>
<path d="M0 0 C0 33.99 0 67.98 0 103 C-0.99 103 -1.98 103 -3 103 C-2.99777939 102.2446698 -2.99555878 101.4893396 -2.99327087 100.71112061 C-2.97322643 93.58975331 -2.95800466 86.46839972 -2.94818783 79.34701157 C-2.94297124 75.68591864 -2.93589579 72.02484904 -2.92456055 68.36376953 C-2.9136882 64.83004782 -2.90771393 61.29634854 -2.90512276 57.76261139 C-2.90237831 55.75960042 -2.89457317 53.75659846 -2.88670349 51.75360107 C-2.88662796 50.53263733 -2.88655243 49.31167358 -2.88647461 48.05371094 C-2.884254 46.97893494 -2.88203339 45.90415894 -2.87974548 44.79681396 C-2.89880841 42.07462137 -2.89880841 42.07462137 -3.56959534 39.80914307 C-4 38 -4 38 -3 35 C-2.91518227 32.41369776 -2.88401771 29.85521944 -2.90234375 27.26953125 C-2.9037587 26.51911057 -2.90517365 25.76868988 -2.90663147 24.99552917 C-2.9122244 22.6011454 -2.92477556 20.20685547 -2.9375 17.8125 C-2.94251592 16.18815239 -2.94707866 14.56380332 -2.95117188 12.93945312 C-2.96219152 8.95959931 -2.97945127 4.97981556 -3 1 C-1 0 -1 0 0 0 Z " fill="#A4ABEE" transform="translate(603,531)"/>
<path d="M0 0 C3 1 3 1 3.9831543 2.73413086 C4.26070557 3.47026611 4.53825684 4.20640137 4.82421875 4.96484375 C5.28344727 6.16463867 5.28344727 6.16463867 5.75195312 7.38867188 C6.21504883 8.6503418 6.21504883 8.6503418 6.6875 9.9375 C7.00783203 10.77474609 7.32816406 11.61199219 7.65820312 12.47460938 C10 18.68112007 10 18.68112007 10 21 C3.02573917 21.1435565 -3.94854689 21.28583605 -10.92285156 21.42724609 C-13.29330021 21.47545751 -15.66374303 21.52395658 -18.03417969 21.57275391 C-21.44985469 21.64301758 -24.86554963 21.71223203 -28.28125 21.78125 C-29.85984802 21.81406067 -29.85984802 21.81406067 -31.47033691 21.84753418 C-36.98164755 21.95782697 -42.48759159 22.02306447 -48 22 C-51 15.375 -51 15.375 -51 12 C-50.34 12 -49.68 12 -49 12 C-48.34 14.31 -47.68 16.62 -47 19 C-29.51 19 -12.02 19 6 19 C5.14099683 15.56398732 4.13002128 12.29017343 3 8.9375 C2.649375 7.89464844 2.29875 6.85179687 1.9375 5.77734375 C1.628125 4.86082031 1.31875 3.94429687 1 3 C0.505 1.515 0.505 1.515 0 0 Z " fill="#BF89D9" transform="translate(510,613)"/>
<path d="M0 0 C3.63599572 3.18848856 5.60195601 6.71839917 7.5625 11.0625 C8.01810303 12.05733398 8.01810303 12.05733398 8.48291016 13.07226562 C16.95676538 32.06175859 18.3976417 55.90756498 11.37890625 75.5625 C9.78580478 79.53397108 8.1315224 83.28957212 6 87 C5.34 86.67 4.68 86.34 4 86 C4.66 84.02 5.32 82.04 6 80 C6.66 80 7.32 80 8 80 C8.20496094 78.79601562 8.40992188 77.59203125 8.62109375 76.3515625 C8.89306359 74.77601308 9.16520807 73.20049379 9.4375 71.625 C9.57220703 70.8309375 9.70691406 70.036875 9.84570312 69.21875 C10.88671875 63.2265625 10.88671875 63.2265625 12 61 C13.06583188 56.86337977 13.10230611 52.94675367 13.0625 48.6875 C13.04896484 46.80611328 13.04896484 46.80611328 13.03515625 44.88671875 C13.02355469 43.93410156 13.01195312 42.98148437 13 42 C12.67 42 12.34 42 12 42 C12.02320313 41.39671875 12.04640625 40.7934375 12.0703125 40.171875 C12.08835937 39.37265625 12.10640625 38.5734375 12.125 37.75 C12.14820313 36.96109375 12.17140625 36.1721875 12.1953125 35.359375 C11.98028992 32.76190224 11.18493994 31.29240304 10 29 C9.7265625 26.95703125 9.7265625 26.95703125 9.625 24.8125 C8.88286649 16.99450732 4.85807201 10.51664708 0.953125 3.84765625 C0 2 0 2 0 0 Z " fill="#78D3F9" transform="translate(738,402)"/>
<path d="M0 0 C0.33 0 0.66 0 1 0 C1 22.11 1 44.22 1 67 C0.01 67.495 0.01 67.495 -1 68 C-0.98259766 67.10861328 -0.98259766 67.10861328 -0.96484375 66.19921875 C-0.95582031 65.37035156 -0.94679688 64.54148437 -0.9375 63.6875 C-0.92589844 62.88699219 -0.91429687 62.08648437 -0.90234375 61.26171875 C-0.9811765 58.62870475 -1.20194863 56.12777487 -1.4921875 53.515625 C-2.29588213 45.03854312 -2.1860128 36.5256094 -2.18530273 28.01831055 C-2.18751281 25.0452694 -2.20578842 22.07258628 -2.22460938 19.09960938 C-2.22753974 17.20312626 -2.22952692 15.3066414 -2.23046875 13.41015625 C-2.23765427 12.52473648 -2.24483978 11.63931671 -2.25224304 10.72706604 C-2.24916641 9.90198044 -2.24608978 9.07689484 -2.24291992 8.22680664 C-2.24434494 7.50497696 -2.24576996 6.78314728 -2.24723816 6.03944397 C-1.96151087 3.68250685 -1.16460685 2.0527186 0 0 Z " fill="#A0ADEF" transform="translate(602,414)"/>
<path d="M0 0 C0.33 0 0.66 0 1 0 C1.29087353 5.04180788 1.01092907 7.07982998 -2 11 C-2.84951727 13.23309911 -2.84951727 13.23309911 -3.4375 15.625 C-4.71381526 20.18326879 -6.32264518 24.5000308 -8.1328125 28.87109375 C-8.81916965 30.55606963 -9.42465403 32.2739621 -10 34 C-8.74453369 33.99476318 -7.48906738 33.98952637 -6.19555664 33.98413086 C-1.50464602 33.96592933 3.18626152 33.95451294 7.87719727 33.94506836 C9.90129116 33.94006262 11.92538148 33.93325604 13.94946289 33.92456055 C16.87126552 33.91232941 19.79302004 33.90673395 22.71484375 33.90234375 C23.60896469 33.89718246 24.50308563 33.89202118 25.42430115 33.88670349 C31.02819663 33.88621144 36.44034924 34.28810852 42 35 C42 35.33 42 35.66 42 36 C23.85 36 5.7 36 -13 36 C-9.625 24.75 -9.625 24.75 -7.51953125 19.3359375 C-6.85727539 17.62470703 -6.85727539 17.62470703 -6.18164062 15.87890625 C-5.72982422 14.72261719 -5.27800781 13.56632813 -4.8125 12.375 C-4.34908203 11.18003906 -3.88566406 9.98507812 -3.40820312 8.75390625 C-2.27551405 5.83460451 -1.13938352 2.91669396 0 0 Z " fill="#F84AB7" transform="translate(271,598)"/>
<path d="M0 0 C2.8223073 3.34176638 4.34635465 6.95273184 5.8828125 10.99609375 C6.14254852 11.66665298 6.40228455 12.33721222 6.66989136 13.02809143 C7.21573655 14.44147105 7.75849511 15.85604614 8.29833984 17.27172852 C9.1220268 19.42971051 9.956692 21.58319819 10.79296875 23.73632812 C11.32357424 25.11433031 11.85354353 26.49257767 12.3828125 27.87109375 C12.75468185 28.83069252 12.75468185 28.83069252 13.13406372 29.80967712 C14.41379432 33.18183742 15.41676658 36.43838226 16 40 C15.67 39.34 15.34 38.68 15 38 C14.34 38 13.68 38 13 38 C12.82984375 37.3709375 12.6596875 36.741875 12.484375 36.09375 C11.23169781 31.66940079 9.90622284 27.57286536 7.75 23.5 C6.88375 21.7675 6.88375 21.7675 6 20 C6.33 19.34 6.66 18.68 7 18 C6.34 18 5.68 18 5 18 C3.96748938 15.56686628 2.94880479 13.12943108 1.9375 10.6875 C1.64294922 9.99720703 1.34839844 9.30691406 1.04492188 8.59570312 C-1.11328125 3.33984375 -1.11328125 3.33984375 0 0 Z " fill="#C88AE1" transform="translate(462,490)"/>
<path d="M0 0 C3 1 3 1 3.9831543 2.73413086 C4.26070557 3.47026611 4.53825684 4.20640137 4.82421875 4.96484375 C5.28344727 6.16463867 5.28344727 6.16463867 5.75195312 7.38867188 C6.21504883 8.6503418 6.21504883 8.6503418 6.6875 9.9375 C7.00783203 10.77474609 7.32816406 11.61199219 7.65820312 12.47460938 C10 18.68112007 10 18.68112007 10 21 C-0.56 20.67 -11.12 20.34 -22 20 C-22 19.67 -22 19.34 -22 19 C-12.76 19 -3.52 19 6 19 C5.14099683 15.56398732 4.13002128 12.29017343 3 8.9375 C2.649375 7.89464844 2.29875 6.85179687 1.9375 5.77734375 C1.4734375 4.40255859 1.4734375 4.40255859 1 3 C0.67 2.01 0.34 1.02 0 0 Z " fill="#BE98E7" transform="translate(510,613)"/>
<path d="M0 0 C0.99 0.33 1.98 0.66 3 1 C3.6953125 2.92578125 3.6953125 2.92578125 4.125 5.3125 C4.27195312 6.09238281 4.41890625 6.87226563 4.5703125 7.67578125 C4.71210937 8.44277344 4.85390625 9.20976562 5 10 C5.56095344 12.39963416 6.21870966 14.65612897 7 17 C6.58203125 20.25 6.58203125 20.25 5.8125 24 C5.57144531 25.2375 5.33039062 26.475 5.08203125 27.75 C3.9284981 31.21476383 3.12355815 32.24097761 0 34 C0.9 29.35 0.9 29.35 1.546875 27.0859375 C4.0097362 17.93341278 2.59165157 8.98439212 0 0 Z " fill="#86CAFA" transform="translate(692,433)"/>
<path d="M0 0 C0.66 0.66 1.32 1.32 2 2 C1.74605469 2.53367187 1.49210937 3.06734375 1.23046875 3.6171875 C-1.04422087 8.54142195 -2.83730725 13.4143061 -4.2890625 18.640625 C-5.05050983 21.16762604 -5.99796532 23.55895311 -7 26 C-7.33 26.87140625 -7.66 27.7428125 -8 28.640625 C-8.33 29.50171875 -8.66 30.3628125 -9 31.25 C-9.33 32.12140625 -9.66 32.9928125 -10 33.890625 C-11 36 -11 36 -13 37 C-12.29068447 32.63017531 -10.84917729 28.62971163 -9.27734375 24.51171875 C-9.01240616 23.80852005 -8.74746857 23.10532135 -8.47450256 22.3808136 C-7.6324451 20.14832553 -6.78505857 17.91790462 -5.9375 15.6875 C-5.3635786 14.1687534 -4.79000706 12.64987455 -4.21679688 11.13085938 C-2.81524415 7.41902933 -1.40891047 3.70904315 0 0 Z " fill="#F94CBA" transform="translate(286,558)"/>
<path d="M0 0 C2.53303614 2.53303614 3.29380684 4.91112902 4.6015625 8.25 C4.8428891 8.86391602 5.0842157 9.47783203 5.33285522 10.11035156 C5.84128739 11.40721724 6.34713698 12.70509795 6.85058594 14.00390625 C7.62299157 15.99482317 8.4045816 17.98194703 9.1875 19.96875 C13 29.71943059 13 29.71943059 13 32 C12.34 32 11.68 32 11 32 C10.5978125 30.9790625 10.5978125 30.9790625 10.1875 29.9375 C8.39582681 25.50546632 6.62163486 21.12815215 4.3125 16.9375 C2.86936398 13.70762414 2.75022059 11.49691176 3 8 C2.34 7.67 1.68 7.34 1 7 C1 6.01 1 5.02 1 4 C0.34 4 -0.32 4 -1 4 C-0.67 2.68 -0.34 1.36 0 0 Z " fill="#BE95E6" transform="translate(491,562)"/>
<path d="M0 0 C2.38273791 2.38273791 3.12819298 4.43243825 4.3828125 7.55859375 C4.82753906 8.66654297 5.27226562 9.77449219 5.73046875 10.91601562 C6.19066406 12.07810547 6.65085937 13.24019531 7.125 14.4375 C7.82689453 16.17483398 7.82689453 16.17483398 8.54296875 17.94726562 C8.98511719 19.05650391 9.42726563 20.16574219 9.8828125 21.30859375 C10.28902832 22.32751709 10.69524414 23.34644043 11.11376953 24.39624023 C12 27 12 27 12 30 C11.34 30 10.68 30 10 30 C9.40251953 28.37191406 9.40251953 28.37191406 8.79296875 26.7109375 C8.25799097 25.26555893 7.72282469 23.82025012 7.1875 22.375 C6.92646484 21.66214844 6.66542969 20.94929688 6.39648438 20.21484375 C4.82914707 15.99657792 3.06220294 12.00756718 1 8 C-0.25 4.75 -0.25 4.75 -1 2 C-0.67 1.34 -0.34 0.68 0 0 Z " fill="#D27FDC" transform="translate(444,445)"/>
<path d="M0 0 C0.66 0 1.32 0 2 0 C3.50855339 3.6006459 5.00535824 7.20605959 6.5 10.8125 C6.92925781 11.83666016 7.35851562 12.86082031 7.80078125 13.91601562 C8.20683594 14.89892578 8.61289062 15.88183594 9.03125 16.89453125 C9.59682617 18.25348511 9.59682617 18.25348511 10.17382812 19.63989258 C11 22 11 22 11 25 C10.34 25 9.68 25 9 25 C7.87468576 22.27096253 6.749738 19.54177495 5.625 16.8125 C5.14933594 15.65911133 5.14933594 15.65911133 4.6640625 14.48242188 C4.04801632 12.98722647 3.43370485 11.49131494 2.82128906 9.99462891 C2.15221674 8.36968216 1.46540662 6.75204795 0.7734375 5.13671875 C0 3 0 3 0 0 Z " fill="#E56BD0" transform="translate(414,373)"/>
<path d="M0 0 C3.94690003 -0.05003872 7.89367309 -0.08601633 11.84082031 -0.10986328 C13.83144637 -0.12467591 15.82198437 -0.15010992 17.8125 -0.17578125 C25.13189641 -0.2127479 31.90273095 0.14353358 39 2 C38.34 2.66 37.68 3.32 37 4 C36.01 4 35.02 4 34 4 C34 3.34 34 2.68 34 2 C33.34 2.33 32.68 2.66 32 3 C28.9375 3.125 28.9375 3.125 26 3 C25.67 2.67 25.34 2.34 25 2 C23.48434092 1.93732307 21.96583374 1.94056543 20.44921875 1.97265625 C19.52302734 1.98490234 18.59683594 1.99714844 17.64257812 2.00976562 C15.68416705 2.04471414 13.72582399 2.08372763 11.76757812 2.12695312 C10.83751953 2.13791016 9.90746094 2.14886719 8.94921875 2.16015625 C8.09674561 2.17699463 7.24427246 2.19383301 6.3659668 2.21118164 C3.80543713 1.98263369 2.20252663 1.28971054 0 0 Z " fill="#92C2F2" transform="translate(648,367)"/>
<path d="M0 0 C3.28639138 3.28639138 4.48034649 7.66812656 6.1875 11.9375 C6.56841797 12.85724609 6.94933594 13.77699219 7.34179688 14.72460938 C7.87450195 16.05008789 7.87450195 16.05008789 8.41796875 17.40234375 C8.74563232 18.21179443 9.0732959 19.02124512 9.41088867 19.85522461 C10 22 10 22 9 25 C9 24.34 9 23.68 9 23 C8.34 23 7.68 23 7 23 C5.84850828 20.27309923 4.70367078 17.54371696 3.5625 14.8125 C3.23701172 14.04357422 2.91152344 13.27464844 2.57617188 12.48242188 C-0.58454286 4.89018957 -0.58454286 4.89018957 -1 1 C-0.67 0.67 -0.34 0.34 0 0 Z " fill="#C391E4" transform="translate(478,530)"/>
<path d="M0 0 C0.99 0.66 1.98 1.32 3 2 C-9.54 2 -22.08 2 -35 2 C-35 1.67 -35 1.34 -35 1 C-34.16227051 0.97494385 -33.32454102 0.9498877 -32.46142578 0.92407227 C-29.35647744 0.82899643 -26.25169819 0.72975975 -23.14697266 0.62768555 C-21.14105193 0.56301749 -19.13497772 0.50316894 -17.12890625 0.44335938 C-15.24365234 0.38051758 -15.24365234 0.38051758 -13.3203125 0.31640625 C-12.15773926 0.27974854 -10.99516602 0.24309082 -9.79736328 0.20532227 C-1.50366623 -0.40342265 -1.50366623 -0.40342265 0 0 Z " fill="#8DB9F1" transform="translate(679,527)"/>
<path d="M0 0 C1.06762695 1.82250977 1.06762695 1.82250977 2 4 C0.91796875 6.83984375 0.91796875 6.83984375 -0.8125 9.9375 C-2.88575974 13.69024246 -4.33323363 16.76280724 -5 21 C-5.33 21.99 -5.66 22.98 -6 24 C-6.66 24 -7.32 24 -8 24 C-8.33 24.66 -8.66 25.32 -9 26 C-8.38443385 20.11792344 -6.17339219 15.03902565 -3.9375 9.625 C-3.56044922 8.69816406 -3.18339844 7.77132813 -2.79492188 6.81640625 C-1.86873604 4.54197521 -0.93697332 2.27000333 0 0 Z " fill="#F94DBB" transform="translate(320,469)"/>
<path d="M0 0 C0.66 0 1.32 0 2 0 C3.17314026 2.76825188 4.33870215 5.53928486 5.5 8.3125 C5.83386719 9.09818359 6.16773438 9.88386719 6.51171875 10.69335938 C6.82753906 11.45068359 7.14335937 12.20800781 7.46875 12.98828125 C7.76201172 13.68477783 8.05527344 14.38127441 8.35742188 15.09887695 C9 17 9 17 9 20 C8.34 20 7.68 20 7 20 C6.566875 18.80375 6.13375 17.6075 5.6875 16.375 C4.70994428 13.74347559 3.6760924 11.37710078 2.375 8.875 C0.93946714 5.8734313 0.39153741 3.28891425 0 0 Z " fill="#D879D8" transform="translate(435,425)"/>
<path d="M0 0 C0.9897583 0.02618408 1.9795166 0.05236816 2.99926758 0.0793457 C4.60898437 0.10351562 4.60898437 0.10351562 6.2512207 0.12817383 C7.37077148 0.17006836 8.49032227 0.21196289 9.64379883 0.25512695 C10.77495117 0.27768555 11.90610352 0.30024414 13.0715332 0.32348633 C15.86777859 0.38247885 18.66137979 0.46474456 21.45629883 0.56762695 C21.45629883 0.89762695 21.45629883 1.22762695 21.45629883 1.56762695 C13.86629883 1.89762695 6.27629883 2.22762695 -1.54370117 2.56762695 C-2.53370117 4.87762695 -3.52370117 7.18762695 -4.54370117 9.56762695 C-5.20370117 10.22762695 -5.86370117 10.88762695 -6.54370117 11.56762695 C-5.33711398 1.19097706 -5.33711398 1.19097706 0 0 Z " fill="#EB5AB9" transform="translate(362.543701171875,366.432373046875)"/>
<path d="M0 0 C0.66 0 1.32 0 2 0 C2.66 2.31 3.32 4.62 4 7 C9.94 7 15.88 7 22 7 C22 7.33 22 7.66 22 8 C15.4 8 8.8 8 2 8 C0 3 0 3 0 0 Z " fill="#D28AE3" transform="translate(459,625)"/>
<path d="M0 0 C0.66 0.33 1.32 0.66 2 1 C1.35075649 4.24621756 0.09860052 7.09839 -1.234375 10.1171875 C-2.41369212 13.01734491 -3.19764256 15.97572967 -4 19 C-4.66 19 -5.32 19 -6 19 C-5.39124245 14.39583374 -4.15277044 10.43516676 -2.4375 6.125 C-1.75494141 4.39636719 -1.75494141 4.39636719 -1.05859375 2.6328125 C-0.70925781 1.76398438 -0.35992187 0.89515625 0 0 Z " fill="#FA4DBC" transform="translate(334,432)"/>
<path d="M0 0 C0.66 0 1.32 0 2 0 C1.37321829 3.66172475 0.35548154 6.8818995 -1.0625 10.3125 C-1.42472656 11.19550781 -1.78695313 12.07851563 -2.16015625 12.98828125 C-2.43730469 13.65214844 -2.71445312 14.31601562 -3 15 C-3.33 15 -3.66 15 -4 15 C-4 13.35 -4 11.7 -4 10 C-3.34 10 -2.68 10 -2 10 C-2.33 9.01 -2.66 8.02 -3 7 C-2.07796291 4.63477442 -1.08301035 2.29598193 0 0 Z " fill="#F556C2" transform="translate(377,453)"/>
<path d="M0 0 C2.25597827 2.25597827 2.96574192 4.04603867 4.125 7 C4.47820312 7.886875 4.83140625 8.77375 5.1953125 9.6875 C6 12 6 12 6 14 C5.01 13.67 4.02 13.34 3 13 C2.05078125 10.8203125 2.05078125 10.8203125 1.3125 8.125 C1.06113281 7.24070312 0.80976563 6.35640625 0.55078125 5.4453125 C0 3 0 3 0 0 Z " fill="#CC85DD" transform="translate(456,475)"/>
<path d="M0 0 C0.66 0 1.32 0 2 0 C2.69937202 1.4317616 3.38412718 2.87067032 4.0625 4.3125 C4.63677734 5.51326172 4.63677734 5.51326172 5.22265625 6.73828125 C6 9 6 9 5 12 C1.94063363 8.24532309 0 4.91886939 0 0 Z " fill="#D87CD9" transform="translate(444,587)"/>
<path d="M0 0 C0.66 0.66 1.32 1.32 2 2 C1.40362909 3.58628608 0.79754075 5.16892059 0.1875 6.75 C-0.31716797 8.07257812 -0.31716797 8.07257812 -0.83203125 9.421875 C-1.96846822 11.93039808 -3.26542927 13.87279005 -5 16 C-4.39363767 10.23955788 -2.24341721 5.27985631 0 0 Z " fill="#F94DBA" transform="translate(297,529)"/>
<path d="M0 0 C1.33256282 3.64120668 0.65840377 5.66876554 -0.8125 9.1875 C-1.16957031 10.06792969 -1.52664063 10.94835937 -1.89453125 11.85546875 C-3 14 -3 14 -5 15 C-4.43174347 9.45949887 -2.37113483 4.96284034 0 0 Z " fill="#F750BB" transform="translate(355,378)"/>
<path d="M0 0 C1.77049689 -0.05410687 3.54146849 -0.09284119 5.3125 -0.125 C6.29863281 -0.14820313 7.28476562 -0.17140625 8.30078125 -0.1953125 C11 0 11 0 14 2 C12.35 2.33 10.7 2.66 9 3 C9 2.34 9 1.68 9 1 C8.01 1.495 8.01 1.495 7 2 C5.00039988 2.039992 2.99952758 2.04346799 1 2 C0.67 1.34 0.34 0.68 0 0 Z " fill="#83C9F9" transform="translate(673,368)"/>
<path d="M0 0 C0.99 0 1.98 0 3 0 C1.32598022 3.95677402 -1.13149285 6.84464213 -4 10 C-4.66 10 -5.32 10 -6 10 C-6 9.34 -6 8.68 -6 8 C-5.34 8 -4.68 8 -4 8 C-3.67 7.01 -3.34 6.02 -3 5 C-2.34 5 -1.68 5 -1 5 C-0.67 3.35 -0.34 1.7 0 0 Z " fill="#7DD1F8" transform="translate(736,496)"/>
<path d="M0 0 C1.23593891 3.70781672 0.5678132 4.67510253 -0.9375 8.1875 C-1.31777344 9.08855469 -1.69804687 9.98960937 -2.08984375 10.91796875 C-2.54037109 11.94857422 -2.54037109 11.94857422 -3 13 C-4.0494188 9.85174359 -3.98655124 9.01298497 -3.1875 5.9375 C-3.01605469 5.24527344 -2.84460938 4.55304688 -2.66796875 3.83984375 C-2 2 -2 2 0 0 Z " fill="#F456C0" transform="translate(371,472)"/>
<path d="M0 0 C0.66 0.33 1.32 0.66 2 1 C0.34703566 5.09305456 -1.13546142 8.58983503 -4 12 C-3.45660208 7.43545749 -2.20536179 4.0271824 0 0 Z " fill="#F84EBB" transform="translate(343,410)"/>
<path d="M0 0 C0.66 0 1.32 0 2 0 C0.14285714 7.57142857 0.14285714 7.57142857 -3 10 C-2.49287967 6.28111761 -1.88391785 3.26545761 0 0 Z " fill="#FA4BBB" transform="translate(303,514)"/>
<path d="M0 0 C0.66 0 1.32 0 2 0 C1.57405412 1.44096586 1.13373367 2.87768712 0.6875 4.3125 C0.44386719 5.11300781 0.20023437 5.91351563 -0.05078125 6.73828125 C-1.04182023 9.09964573 -2.08074943 10.33879993 -4 12 C-3.33501617 7.61110675 -1.81242323 4.0188515 0 0 Z " fill="#F84DBA" transform="translate(310,496)"/>
<path d="M0 0 C1.32 0.33 2.64 0.66 4 1 C4 1.66 4 2.32 4 3 C0.04 3 -3.92 3 -8 3 C-8 2.67 -8 2.34 -8 2 C-5.36 2 -2.72 2 0 2 C0 1.34 0 0.68 0 0 Z " fill="#E76BD5" transform="translate(416,526)"/>
<path d="M0 0 C0.99 0.66 1.98 1.32 3 2 C-0.3 2 -3.6 2 -7 2 C-7 1.34 -7 0.68 -7 0 C-4.28569464 -1.35715268 -2.88661718 -0.77445827 0 0 Z " fill="#88C2F7" transform="translate(679,527)"/>
<path d="M0 0 C0.66 0 1.32 0 2 0 C1.39009109 3.55780196 0.4216319 6.6828589 -1 10 C-1.66 9.67 -2.32 9.34 -3 9 C-2.01 6.03 -1.02 3.06 0 0 Z " fill="#F754C0" transform="translate(361,496)"/>
<path d="M0 0 C2.6855594 2.6855594 3.06049974 5.37621328 4 9 C3.01 9 2.02 9 1 9 C0.67 6.03 0.34 3.06 0 0 Z " fill="#DC77D5" transform="translate(432,415)"/>
<path d="M0 0 C2.26185454 2.26185454 3.03921617 3.96983561 4 7 C3.67 7.99 3.34 8.98 3 10 C0.64551835 7.44931155 0.01672076 6.28982642 -0.1875 2.75 C-0.125625 1.8425 -0.06375 0.935 0 0 Z " fill="#DF71D3" transform="translate(426,400)"/>
<path d="M0 0 C0.66 0 1.32 0 2 0 C3.25664978 2.90600261 4 4.79604584 4 8 C3.34 8 2.68 8 2 8 C0.74335022 5.09399739 0 3.20395416 0 0 Z " fill="#D083DB" transform="translate(459,625)"/>
<path d="M0 0 C1.0326802 2.78823655 1.04509293 3.8677274 0.0625 6.75 C-0.288125 7.4925 -0.63875 8.235 -1 9 C-1.66 8.67 -2.32 8.34 -3 8 C-1.125 1.125 -1.125 1.125 0 0 Z " fill="#F555C3" transform="translate(383,438)"/>
<path d="M0 0 C0.66 0.33 1.32 0.66 2 1 C-0.75 7.75 -0.75 7.75 -3 10 C-2.49287967 6.28111761 -1.88391785 3.26545761 0 0 Z " fill="#F752BD" transform="translate(359,368)"/>
<path d="M0 0 C2.31 0 4.62 0 7 0 C7 0.33 7 0.66 7 1 C4.69 1 2.38 1 0 1 C0 0.67 0 0.34 0 0 Z " fill="#ED69C9" transform="translate(376,574)"/>
<path d="M0 0 C2.31 0 4.62 0 7 0 C7 0.33 7 0.66 7 1 C4.69 1 2.38 1 0 1 C0 0.67 0 0.34 0 0 Z " fill="#EE67C8" transform="translate(368,574)"/>
<path d="M0 0 C1.32 0.33 2.64 0.66 4 1 C2.68 1.33 1.36 1.66 0 2 C0 1.34 0 0.68 0 0 Z " fill="#DB80D7" transform="translate(432,574)"/>
<path d="M0 0 C1.65 0 3.3 0 5 0 C5 0.33 5 0.66 5 1 C3.35 1 1.7 1 0 1 C0 0.67 0 0.34 0 0 Z " fill="#E278D2" transform="translate(416,574)"/>
<path d="M0 0 C1.65 0 3.3 0 5 0 C5 0.33 5 0.66 5 1 C3.35 1 1.7 1 0 1 C0 0.67 0 0.34 0 0 Z " fill="#F165C6" transform="translate(360,574)"/>
<path d="M0 0 C1.65 0 3.3 0 5 0 C5 0.33 5 0.66 5 1 C3.35 1 1.7 1 0 1 C0 0.67 0 0.34 0 0 Z " fill="#F362C3" transform="translate(344,574)"/>
<path d="M0 0 C4 1 4 1 4 1 Z " fill="#F263C6" transform="translate(352,574)"/>
<path d="M0 0 C0.99 0.495 0.99 0.495 2 1 C1.67 1.66 1.34 2.32 1 3 C0.67 2.01 0.34 1.02 0 0 Z " fill="#8CCEF9" transform="translate(691,437)"/>
<path d="M0 0 C3 1 3 1 3 1 Z " fill="#E476D0" transform="translate(408,574)"/>
<path d="M0 0 C3 1 3 1 3 1 Z " fill="#E571CE" transform="translate(404,574)"/>
<path d="M0 0 C3 1 3 1 3 1 Z " fill="#EB6DCB" transform="translate(384,574)"/>
<path d="M0 0 C3 1 3 1 3 1 Z " fill="#F360C2" transform="translate(339,574)"/>
<path d="M0 0 C0.66 0 1.32 0 2 0 C1.67 0.66 1.34 1.32 1 2 C0.67 1.34 0.34 0.68 0 0 Z " fill="#E76FD1" transform="translate(409,504)"/>
<path d="M0 0 C3 1 3 1 3 1 Z " fill="#E272C7" transform="translate(408,365)"/>
<path d="" fill="#BAA5E6" transform="translate(0,0)"/>
<path d="" fill="#D881D7" transform="translate(0,0)"/>
<path d="M0 0 C2 1 2 1 2 1 Z " fill="#E07BD5" transform="translate(427,574)"/>
<path d="M0 0 C2 1 2 1 2 1 Z " fill="#E871CD" transform="translate(400,574)"/>
<path d="M0 0 C2 1 2 1 2 1 Z " fill="#E96FCD" transform="translate(392,574)"/>
<path d="M0 0 C2 1 2 1 2 1 Z " fill="#EC6BCA" transform="translate(389,574)"/>
<path d="M0 0 C2 1 2 1 2 1 Z " fill="#98C8F4" transform="translate(678,530)"/>
<path d="M0 0 C2 1 2 1 2 1 Z " fill="#90CDF4" transform="translate(696,527)"/>
<path d="" fill="#E76ED1" transform="translate(0,0)"/>
<path d="M0 0 C2 1 2 1 2 1 Z " fill="#F462C7" transform="translate(365,495)"/>
<path d="" fill="#EB6DCE" transform="translate(0,0)"/>
<path d="M0 0 C2 1 2 1 2 1 Z " fill="#8FCAF6" transform="translate(672,480)"/>
<path d="" fill="#A6B7F2" transform="translate(0,0)"/>
<path d="M0 0 C2 1 2 1 2 1 Z " fill="#A4B5F2" transform="translate(604,465)"/>
<path d="" fill="#F262C9" transform="translate(0,0)"/>
<path d="M0 0 C2 1 2 1 2 1 Z " fill="#8DCCF6" transform="translate(680,423)"/>
<path d="M0 0 C2 1 2 1 2 1 Z " fill="#96C3F3" transform="translate(652,415)"/>
<path d="M0 0 C2 1 2 1 2 1 Z " fill="#A5B8F2" transform="translate(604,415)"/>
<path d="M0 0 C2 1 2 1 2 1 Z " fill="#9EBFF3" transform="translate(632,365)"/>
<path d="" fill="#7B7D7C" transform="translate(0,0)"/>
<path d="" fill="#868586" transform="translate(0,0)"/>
<path d="" fill="#BCA5E3" transform="translate(0,0)"/>
<path d="" fill="#D08CDD" transform="translate(0,0)"/>
<path d="" fill="#BCA5E9" transform="translate(0,0)"/>
<path d="" fill="#ADAFED" transform="translate(0,0)"/>
<path d="" fill="#EC62BB" transform="translate(0,0)"/>
<path d="" fill="#F05FC0" transform="translate(0,0)"/>
<path d="" fill="#F35FC0" transform="translate(0,0)"/>
<path d="" fill="#F25EBD" transform="translate(0,0)"/>
<path d="" fill="#D387DD" transform="translate(0,0)"/>
<path d="" fill="#ACB2F1" transform="translate(0,0)"/>
<path d="" fill="#BEA4ED" transform="translate(0,0)"/>
<path d="" fill="#ACB2F0" transform="translate(0,0)"/>
<path d="" fill="#E07AD5" transform="translate(0,0)"/>
<path d="" fill="#E677D1" transform="translate(0,0)"/>
<path d="" fill="#E96FCD" transform="translate(0,0)"/>
<path d="" fill="#EF65C6" transform="translate(0,0)"/>
<path d="" fill="#ABB2F1" transform="translate(0,0)"/>
<path d="" fill="#ABB2F1" transform="translate(0,0)"/>
<path d="" fill="#F35DBD" transform="translate(0,0)"/>
<path d="" fill="#ABB3F0" transform="translate(0,0)"/>
<path d="" fill="#ACB3F1" transform="translate(0,0)"/>
<path d="" fill="#F05EBB" transform="translate(0,0)"/>
<path d="" fill="#A9B4F2" transform="translate(0,0)"/>
<path d="" fill="#AAB4F2" transform="translate(0,0)"/>
<path d="" fill="#A9B6F3" transform="translate(0,0)"/>
<path d="" fill="#93CEF6" transform="translate(0,0)"/>
<path d="" fill="#E676D5" transform="translate(0,0)"/>
<path d="" fill="#90CCF5" transform="translate(0,0)"/>
<path d="" fill="#86D2F3" transform="translate(0,0)"/>
<path d="" fill="#F461C5" transform="translate(0,0)"/>
<path d="" fill="#F165C6" transform="translate(0,0)"/>
<path d="" fill="#95C8F6" transform="translate(0,0)"/>
<path d="" fill="#86D8FA" transform="translate(0,0)"/>
<path d="" fill="#8FCFF7" transform="translate(0,0)"/>
<path d="" fill="#A7B7F3" transform="translate(0,0)"/>
<path d="" fill="#EF6ACC" transform="translate(0,0)"/>
<path d="" fill="#F360C0" transform="translate(0,0)"/>
<path d="" fill="#8CD9F7" transform="translate(0,0)"/>
<path d="" fill="#F165CA" transform="translate(0,0)"/>
<path d="" fill="#91CFFA" transform="translate(0,0)"/>
<path d="" fill="#EF65C8" transform="translate(0,0)"/>
<path d="" fill="#91D0F9" transform="translate(0,0)"/>
<path d="" fill="#EE68C9" transform="translate(0,0)"/>
<path d="" fill="#A6B7F2" transform="translate(0,0)"/>
<path d="" fill="#8ED1FA" transform="translate(0,0)"/>
<path d="" fill="#88DAF8" transform="translate(0,0)"/>
<path d="" fill="#90CCF9" transform="translate(0,0)"/>
<path d="" fill="#A4B6F1" transform="translate(0,0)"/>
<path d="" fill="#9AC1F3" transform="translate(0,0)"/>
<path d="" fill="#9CC2F6" transform="translate(0,0)"/>
<path d="" fill="#9CC0F4" transform="translate(0,0)"/>
<path d="" fill="#9DC0F6" transform="translate(0,0)"/>
<path d="" fill="#A0BBF2" transform="translate(0,0)"/>
<path d="" fill="#A1BBF4" transform="translate(0,0)"/>
<path d="" fill="#A5BBF3" transform="translate(0,0)"/>
<path d="" fill="#BDA5EB" transform="translate(0,0)"/>
<path d="" fill="#85D7F7" transform="translate(0,0)"/>
<path d="" fill="#8ECFF6" transform="translate(0,0)"/>
<path d="" fill="#9AC2F3" transform="translate(0,0)"/>
<path d="" fill="#9CC3F3" transform="translate(0,0)"/>
<path d="" fill="#A2BAF1" transform="translate(0,0)"/>
<path d="" fill="#AAB5ED" transform="translate(0,0)"/>
<path d="" fill="#AEB4ED" transform="translate(0,0)"/>
<path d="" fill="#ADB2EE" transform="translate(0,0)"/>
<path d="" fill="#B7ABEA" transform="translate(0,0)"/>
<path d="" fill="#B9A6E3" transform="translate(0,0)"/>
<path d="" fill="#E671C4" transform="translate(0,0)"/>
<path d="" fill="#EB6AC2" transform="translate(0,0)"/>
<path d="" fill="#8D878B" transform="translate(0,0)"/>
<path d="" fill="#868586" transform="translate(0,0)"/>
</svg>
